<svg width="199" height="35" viewBox="0 0 199 35" fill="none" xmlns="http://www.w3.org/2000/svg">
<path d="M22.401 16.9656C22.401 16.6886 22.6016 16.4629 22.8627 16.4058C25.6878 15.7854 27.6435 13.4459 27.6435 10.731C27.6435 7.52814 24.8808 4.89828 21.4551 4.89828C18.5327 4.89828 15.9921 6.85696 15.399 9.53126C15.3384 9.80479 15.0892 9.9848 14.8192 9.9848C14.5492 9.9848 14.3 9.80479 14.2394 9.53128C13.6461 6.85696 11.1055 4.89828 8.18309 4.89828C4.75742 4.89828 1.99468 7.52814 1.99468 10.731C1.99468 13.4459 3.95045 15.7854 6.7755 16.4058C7.0366 16.4629 7.23725 16.6886 7.23725 16.9656C7.23725 17.2426 7.03651 17.4683 6.77533 17.5254L22.401 16.9656ZM22.401 16.9656C22.401 17.2425 22.6016 17.4682 22.8627 17.5253C25.6878 18.1457 27.6435 20.4852 27.6435 23.2002C27.6435 26.403 24.8808 29.0329 21.4551 29.0329C18.5327 29.0329 15.9921 27.0742 15.399 24.3999M22.401 16.9656L15.399 24.3999M15.399 24.3999C15.3384 24.1264 15.0892 23.9464 14.8192 23.9464C14.5492 23.9464 14.3 24.1264 14.2394 24.3999C13.6461 27.0742 11.1055 29.0329 8.18309 29.0329C4.75742 29.0329 1.99468 26.403 1.99468 23.2002C1.99468 20.4853 3.95029 18.1459 6.77515 17.5254L15.399 24.3999ZM28.8297 10.731C28.8297 6.86823 25.5081 3.75 21.4551 3.75C18.5997 3.75 16.0326 5.3282 14.8192 7.6876C13.6056 5.32821 11.0383 3.75 8.18309 3.75C4.13015 3.75 0.808472 6.86823 0.808472 10.731C0.808472 13.4338 2.41758 15.8082 4.86644 16.9656C2.41758 18.1229 0.808472 20.4974 0.808472 23.2002C0.808472 27.0629 4.13015 30.1812 8.18309 30.1812C11.0383 30.1812 13.6056 28.6029 14.8192 26.2436C16.0326 28.6029 18.5997 30.1812 21.4551 30.1812C25.5081 30.1812 28.8297 27.0629 28.8297 23.2002C28.8297 20.4974 27.2206 18.1229 24.7718 16.9656C27.2206 15.8082 28.8297 13.4338 28.8297 10.731Z" fill="#3DB370" stroke="#3DB370" stroke-width="0.5"/>
<path d="M47.9139 31C47.4939 31 47.1439 30.86 46.8639 30.58C46.6073 30.3 46.4789 29.9617 46.4789 29.565V7.9C46.4789 7.50333 46.6073 7.17667 46.8639 6.92C47.1439 6.64 47.4823 6.5 47.8789 6.5H60.1639C60.5606 6.5 60.8989 6.62833 61.1789 6.885C61.4589 7.14167 61.5989 7.46833 61.5989 7.865C61.5989 8.23833 61.4589 8.55333 61.1789 8.81C60.8989 9.06667 60.5606 9.195 60.1639 9.195H49.1389L49.3489 8.915V17.49L49.1739 17.105H58.5889C58.9856 17.105 59.3239 17.245 59.6039 17.525C59.8839 17.7817 60.0239 18.1083 60.0239 18.505C60.0239 18.855 59.8839 19.17 59.6039 19.45C59.3239 19.7067 58.9856 19.835 58.5889 19.835H49.1039L49.3489 19.52V29.565C49.3489 29.9617 49.2089 30.3 48.9289 30.58C48.6489 30.86 48.3106 31 47.9139 31ZM66.8713 31C66.4747 31 66.1363 30.86 65.8563 30.58C65.5997 30.3 65.4713 29.9617 65.4713 29.565V14.305C65.4713 13.9083 65.5997 13.5817 65.8563 13.325C66.1363 13.045 66.4747 12.905 66.8713 12.905C67.2913 12.905 67.6297 13.045 67.8863 13.325C68.143 13.5817 68.2713 13.9083 68.2713 14.305V18.925L67.8513 18.19C67.9913 17.4667 68.2363 16.7667 68.5863 16.09C68.9597 15.39 69.4263 14.7717 69.9863 14.235C70.5463 13.675 71.188 13.2433 71.9113 12.94C72.6347 12.6133 73.428 12.45 74.2913 12.45C74.8047 12.45 75.2713 12.5783 75.6913 12.835C76.1347 13.0683 76.3563 13.4067 76.3563 13.85C76.3563 14.34 76.228 14.7017 75.9713 14.935C75.7147 15.1683 75.423 15.285 75.0963 15.285C74.793 15.285 74.5013 15.2267 74.2213 15.11C73.9413 14.97 73.5913 14.9 73.1713 14.9C72.588 14.9 72.0047 15.0633 71.4213 15.39C70.8613 15.6933 70.3363 16.1367 69.8463 16.72C69.3797 17.3033 68.9947 17.9683 68.6913 18.715C68.4113 19.4383 68.2713 20.22 68.2713 21.06V29.565C68.2713 29.9617 68.1313 30.3 67.8513 30.58C67.5947 30.86 67.268 31 66.8713 31ZM87.0981 31.35C85.2314 31.35 83.5981 30.9533 82.1981 30.16C80.7981 29.3667 79.7014 28.2817 78.9081 26.905C78.1381 25.505 77.7531 23.895 77.7531 22.075C77.7531 20.045 78.1497 18.3183 78.9431 16.895C79.7597 15.4483 80.8097 14.3517 82.0931 13.605C83.3997 12.835 84.7764 12.45 86.2231 12.45C87.2964 12.45 88.3347 12.6483 89.3381 13.045C90.3414 13.4417 91.2281 14.025 91.9981 14.795C92.7681 15.5417 93.3864 16.4517 93.8531 17.525C94.3197 18.575 94.5647 19.7533 94.5881 21.06C94.5881 21.4333 94.4481 21.7483 94.1681 22.005C93.8881 22.2617 93.5614 22.39 93.1881 22.39H79.3631L78.7331 19.975H92.2081L91.6481 20.465V19.695C91.5547 18.7383 91.2281 17.9217 90.6681 17.245C90.1314 16.545 89.4664 16.0083 88.6731 15.635C87.9031 15.2617 87.0864 15.075 86.2231 15.075C85.5231 15.075 84.8231 15.2033 84.1231 15.46C83.4464 15.6933 82.8281 16.09 82.2681 16.65C81.7314 17.1867 81.2881 17.8867 80.9381 18.75C80.6114 19.6133 80.4481 20.6517 80.4481 21.865C80.4481 23.2183 80.7164 24.4083 81.2531 25.435C81.8131 26.4617 82.5831 27.2783 83.5631 27.885C84.5431 28.4683 85.6864 28.76 86.9931 28.76C87.8097 28.76 88.5214 28.655 89.1281 28.445C89.7347 28.235 90.2597 27.9783 90.7031 27.675C91.1464 27.3483 91.5197 27.0217 91.8231 26.695C92.1264 26.485 92.4181 26.38 92.6981 26.38C93.0481 26.38 93.3281 26.4967 93.5381 26.73C93.7714 26.9633 93.8881 27.2433 93.8881 27.57C93.8881 27.9667 93.7014 28.3167 93.3281 28.62C92.6747 29.3433 91.7881 29.985 90.6681 30.545C89.5481 31.0817 88.3581 31.35 87.0981 31.35ZM107.162 31.35C105.295 31.35 103.662 30.9533 102.262 30.16C100.862 29.3667 99.7649 28.2817 98.9715 26.905C98.2015 25.505 97.8165 23.895 97.8165 22.075C97.8165 20.045 98.2132 18.3183 99.0065 16.895C99.8232 15.4483 100.873 14.3517 102.157 13.605C103.463 12.835 104.84 12.45 106.287 12.45C107.36 12.45 108.398 12.6483 109.402 13.045C110.405 13.4417 111.292 14.025 112.062 14.795C112.832 15.5417 113.45 16.4517 113.917 17.525C114.383 18.575 114.628 19.7533 114.652 21.06C114.652 21.4333 114.512 21.7483 114.232 22.005C113.952 22.2617 113.625 22.39 113.252 22.39H99.4265L98.7965 19.975H112.272L111.712 20.465V19.695C111.618 18.7383 111.292 17.9217 110.732 17.245C110.195 16.545 109.53 16.0083 108.737 15.635C107.967 15.2617 107.15 15.075 106.287 15.075C105.587 15.075 104.887 15.2033 104.187 15.46C103.51 15.6933 102.892 16.09 102.332 16.65C101.795 17.1867 101.352 17.8867 101.002 18.75C100.675 19.6133 100.512 20.6517 100.512 21.865C100.512 23.2183 100.78 24.4083 101.317 25.435C101.877 26.4617 102.647 27.2783 103.627 27.885C104.607 28.4683 105.75 28.76 107.057 28.76C107.873 28.76 108.585 28.655 109.192 28.445C109.798 28.235 110.323 27.9783 110.767 27.675C111.21 27.3483 111.583 27.0217 111.887 26.695C112.19 26.485 112.482 26.38 112.762 26.38C113.112 26.38 113.392 26.4967 113.602 26.73C113.835 26.9633 113.952 27.2433 113.952 27.57C113.952 27.9667 113.765 28.3167 113.392 28.62C112.738 29.3433 111.852 29.985 110.732 30.545C109.612 31.0817 108.422 31.35 107.162 31.35ZM127.61 12.625C129.15 12.625 130.363 12.9633 131.25 13.64C132.16 14.2933 132.802 15.18 133.175 16.3C133.572 17.3967 133.77 18.6217 133.77 19.975V29.565C133.77 29.9617 133.63 30.3 133.35 30.58C133.093 30.86 132.767 31 132.37 31C131.973 31 131.635 30.86 131.355 30.58C131.098 30.3 130.97 29.9617 130.97 29.565V19.975C130.97 19.0883 130.842 18.295 130.585 17.595C130.328 16.8717 129.897 16.3 129.29 15.88C128.707 15.4367 127.902 15.215 126.875 15.215C125.918 15.215 125.043 15.4367 124.25 15.88C123.457 16.3 122.827 16.8717 122.36 17.595C121.893 18.295 121.66 19.0883 121.66 19.975V29.565C121.66 29.9617 121.52 30.3 121.24 30.58C120.983 30.86 120.657 31 120.26 31C119.863 31 119.525 30.86 119.245 30.58C118.988 30.3 118.86 29.9617 118.86 29.565V6.5C118.86 6.10333 118.988 5.77667 119.245 5.52C119.525 5.24 119.863 5.1 120.26 5.1C120.68 5.1 121.018 5.24 121.275 5.52C121.532 5.77667 121.66 6.10333 121.66 6.5V16.965L120.96 17.735C121.077 17.1283 121.333 16.5217 121.73 15.915C122.127 15.285 122.628 14.725 123.235 14.235C123.842 13.745 124.518 13.36 125.265 13.08C126.012 12.7767 126.793 12.625 127.61 12.625ZM153.868 12.73C154.264 12.73 154.591 12.87 154.848 13.15C155.128 13.4067 155.268 13.7333 155.268 14.13V29.565C155.268 29.9617 155.128 30.3 154.848 30.58C154.591 30.86 154.264 31 153.868 31C153.448 31 153.109 30.86 152.853 30.58C152.596 30.3 152.468 29.9617 152.468 29.565V26.24L153.133 26.17C153.133 26.6833 152.958 27.2433 152.608 27.85C152.258 28.4567 151.779 29.0283 151.173 29.565C150.566 30.0783 149.843 30.51 149.003 30.86C148.186 31.1867 147.299 31.35 146.343 31.35C144.756 31.35 143.333 30.9417 142.073 30.125C140.813 29.285 139.809 28.1533 139.063 26.73C138.339 25.3067 137.978 23.685 137.978 21.865C137.978 20.0217 138.339 18.4 139.063 17C139.809 15.5767 140.813 14.4683 142.073 13.675C143.333 12.8583 144.733 12.45 146.273 12.45C147.276 12.45 148.209 12.6133 149.073 12.94C149.936 13.2667 150.683 13.71 151.313 14.27C151.966 14.83 152.468 15.4483 152.818 16.125C153.191 16.8017 153.378 17.4783 153.378 18.155L152.468 17.945V14.13C152.468 13.7333 152.596 13.4067 152.853 13.15C153.109 12.87 153.448 12.73 153.868 12.73ZM146.658 28.76C147.824 28.76 148.851 28.4567 149.738 27.85C150.648 27.2433 151.348 26.4267 151.838 25.4C152.351 24.35 152.608 23.1717 152.608 21.865C152.608 20.5817 152.351 19.4267 151.838 18.4C151.348 17.35 150.648 16.5333 149.738 15.95C148.851 15.3433 147.824 15.04 146.658 15.04C145.514 15.04 144.488 15.3317 143.578 15.915C142.691 16.4983 141.991 17.3033 141.478 18.33C140.964 19.3567 140.708 20.535 140.708 21.865C140.708 23.1717 140.953 24.35 141.443 25.4C141.956 26.4267 142.656 27.2433 143.543 27.85C144.453 28.4567 145.491 28.76 146.658 28.76ZM169.452 12.45C171.038 12.45 172.287 12.7767 173.197 13.43C174.107 14.0833 174.748 14.9583 175.122 16.055C175.518 17.1517 175.717 18.3767 175.717 19.73V29.565C175.717 29.9617 175.577 30.3 175.297 30.58C175.04 30.86 174.713 31 174.317 31C173.92 31 173.582 30.86 173.302 30.58C173.045 30.3 172.917 29.9617 172.917 29.565V19.8C172.917 18.9133 172.777 18.12 172.497 17.42C172.24 16.6967 171.797 16.125 171.167 15.705C170.56 15.2617 169.72 15.04 168.647 15.04C167.667 15.04 166.768 15.2617 165.952 15.705C165.135 16.125 164.482 16.6967 163.992 17.42C163.502 18.12 163.257 18.9133 163.257 19.8V29.565C163.257 29.9617 163.117 30.3 162.837 30.58C162.58 30.86 162.253 31 161.857 31C161.46 31 161.122 30.86 160.842 30.58C160.585 30.3 160.457 29.9617 160.457 29.565V14.305C160.457 13.9083 160.585 13.5817 160.842 13.325C161.122 13.045 161.46 12.905 161.857 12.905C162.277 12.905 162.615 13.045 162.872 13.325C163.128 13.5817 163.257 13.9083 163.257 14.305V16.79L162.557 17.56C162.673 16.9533 162.942 16.3467 163.362 15.74C163.782 15.11 164.307 14.55 164.937 14.06C165.567 13.57 166.267 13.185 167.037 12.905C167.807 12.6017 168.612 12.45 169.452 12.45ZM195.806 5.1C196.203 5.1 196.529 5.24 196.786 5.52C197.066 5.77667 197.206 6.10333 197.206 6.5V29.565C197.206 29.9617 197.066 30.3 196.786 30.58C196.529 30.86 196.203 31 195.806 31C195.386 31 195.048 30.86 194.791 30.58C194.534 30.3 194.406 29.9617 194.406 29.565V26.24L195.071 25.995C195.071 26.555 194.896 27.15 194.546 27.78C194.196 28.3867 193.718 28.9583 193.111 29.495C192.504 30.0317 191.781 30.475 190.941 30.825C190.124 31.175 189.238 31.35 188.281 31.35C186.718 31.35 185.294 30.9417 184.011 30.125C182.751 29.3083 181.748 28.1883 181.001 26.765C180.278 25.3417 179.916 23.72 179.916 21.9C179.916 20.0567 180.278 18.4233 181.001 17C181.748 15.5767 182.751 14.4683 184.011 13.675C185.271 12.8583 186.671 12.45 188.211 12.45C189.191 12.45 190.113 12.6133 190.976 12.94C191.839 13.2667 192.586 13.71 193.216 14.27C193.869 14.83 194.383 15.4483 194.756 16.125C195.129 16.8017 195.316 17.4783 195.316 18.155L194.406 17.945V6.5C194.406 6.10333 194.534 5.77667 194.791 5.52C195.048 5.24 195.386 5.1 195.806 5.1ZM188.596 28.76C189.763 28.76 190.789 28.4683 191.676 27.885C192.586 27.2783 193.286 26.4617 193.776 25.435C194.289 24.385 194.546 23.2067 194.546 21.9C194.546 20.57 194.289 19.3917 193.776 18.365C193.286 17.3383 192.586 16.5333 191.676 15.95C190.789 15.3433 189.763 15.04 188.596 15.04C187.453 15.04 186.426 15.3433 185.516 15.95C184.629 16.5333 183.929 17.3383 183.416 18.365C182.903 19.3917 182.646 20.57 182.646 21.9C182.646 23.1833 182.903 24.35 183.416 25.4C183.929 26.4267 184.629 27.2433 185.516 27.85C186.426 28.4567 187.453 28.76 188.596 28.76Z" fill="#16133D"/>
</svg>
