<svg width="39" height="37" viewBox="0 0 39 37" fill="none" xmlns="http://www.w3.org/2000/svg">
<path d="M35.8875 13.8462V33.5073C35.8875 34.8314 34.7397 35.9051 33.3243 35.9051H5.12927C3.71391 35.9051 2.56609 34.8314 2.56609 33.5073C2.56609 14.9202 2.5644 18.4021 2.57169 13.8462H35.8875Z" fill="#D1E7FF"/>
<path d="M35.8875 13.8462V18.3871C35.8875 19.3698 35.0454 20.1838 33.995 20.1878C33.9833 20.1879 4.47883 20.1879 4.45752 20.1878C3.40741 20.1835 2.56597 19.3695 2.56597 18.3871C2.56597 17.0765 2.56501 17.9813 2.57157 13.8462H35.8875Z" fill="#B9DCFF"/>
<path d="M25.7147 25.1894V35.905H12.7385V25.1894C12.7385 23.8653 13.8864 22.7915 15.3017 22.7915H23.1515C24.5669 22.7915 25.7147 23.8653 25.7147 25.1894Z" fill="#E8F3FF"/>
<path d="M37.8097 13.8461C37.8097 16.2452 35.7301 18.1923 33.164 18.1923C30.5984 18.1923 28.5182 16.2462 28.5182 13.8461C28.5182 16.2462 26.438 18.1923 23.8724 18.1923C21.3068 18.1923 19.2266 16.2462 19.2266 13.8461C19.2266 16.2462 17.1464 18.1923 14.5809 18.1923C12.0153 18.1923 9.93508 16.2462 9.93508 13.8461C9.93108 16.2305 7.83327 18.1923 5.28931 18.1923C2.74847 18.1923 0.647537 16.233 0.643532 13.8461C0.643532 10.0688 0.632479 10.3012 0.671567 10.1278C0.710015 9.95767 0.443524 10.5602 4.47389 1.85811C4.67735 1.41974 5.13952 1.13574 5.64976 1.13574H32.8035C33.3137 1.13574 33.7759 1.41974 33.9794 1.85811C38.0127 10.5667 37.7432 9.95752 37.7817 10.1278C37.8207 10.3009 37.8097 10.0647 37.8097 13.8461Z" fill="#B9DCFF"/>
<path d="M37.8099 13.8461C37.8099 16.2452 35.7303 18.1922 33.1641 18.1922C30.5985 18.1922 28.5184 16.2462 28.5184 13.8461C28.5184 16.2462 26.4382 18.1922 23.8726 18.1922C21.307 18.1922 19.2268 16.2462 19.2268 13.8461C19.2268 16.2462 17.1466 18.1922 14.581 18.1922C12.0154 18.1922 9.93524 16.2462 9.93524 13.8461C9.93123 16.2305 7.83342 18.1922 5.28946 18.1922C2.74862 18.1922 0.647683 16.2329 0.643678 13.8461C0.63735 10.0482 0.638311 10.2761 0.671713 10.1279H37.7819C37.8209 10.3009 37.8099 10.0648 37.8099 13.8461Z" fill="#A2D0FF"/>
<path d="M32.4573 4.33906C24.321 3.29147 16.1096 4.63513 9.46809 9.31691C8.72052 9.84393 7.80931 10.1279 6.87326 10.1279H0.671631C0.710079 9.95775 0.443587 10.5603 4.47396 1.85811C4.67741 1.41975 5.13959 1.13574 5.64982 1.13574H32.8036C33.3143 1.13574 33.7762 1.41945 33.9793 1.85781L34.1578 2.24313C34.6581 3.32317 33.7038 4.49957 32.4573 4.33906Z" fill="#D1E7FF"/>
<path d="M36.5282 20.8435V33.5074C36.5282 35.1602 35.0909 36.5048 33.3242 36.5048H5.12915C3.36247 36.5048 1.92517 35.1602 1.92517 33.5074V20.8435C1.92517 20.5124 2.21208 20.244 2.56596 20.244C2.91984 20.244 3.20676 20.5124 3.20676 20.8435V33.5074C3.20676 34.4991 4.06911 35.3059 5.12915 35.3059H12.0978V25.1897C12.0978 23.5369 13.5351 22.1923 15.3018 22.1923H23.1516C24.9182 22.1923 26.3555 23.5369 26.3555 25.1897V32.908C26.3555 33.239 26.0686 33.5074 25.7147 33.5074C25.3609 33.5074 25.0739 33.239 25.0739 32.908V25.1897C25.0739 24.1981 24.2115 23.3912 23.1516 23.3912H15.3018C14.2418 23.3912 13.3794 24.1981 13.3794 25.1897V35.3059H18.5859V25.8641C18.5859 25.533 18.8728 25.2646 19.2267 25.2646C19.5806 25.2646 19.8675 25.533 19.8675 25.8641V35.3059H33.3242C34.3842 35.3059 35.2466 34.4991 35.2466 33.5074V20.8435C35.2466 20.5124 35.5335 20.244 35.8874 20.244C36.2413 20.244 36.5282 20.5123 36.5282 20.8435ZM4.16796 10.1278C4.16796 10.4588 4.45487 10.7273 4.80875 10.7273C39.6735 10.7273 37.9449 10.7856 38.1996 10.6028C38.3328 10.507 38.4198 10.3687 38.4437 10.2107C38.4794 9.96982 38.7094 10.5623 34.2325 0.897243C34.1309 0.677984 33.9 0.536133 33.6445 0.536133H4.80867C4.55331 0.536133 4.32223 0.678059 4.22074 0.897243L0.0555615 9.88942C-0.0180501 10.0484 0.00269573 9.79605 0.00269573 13.8469C0.0073415 16.5734 2.37885 18.7917 5.28927 18.7917C7.29008 18.7917 9.03617 17.7433 9.93368 16.2022C11.9383 19.6485 17.2183 19.6523 19.2266 16.2045C21.2333 19.6495 26.511 19.6503 28.5182 16.2045C29.415 17.7443 31.1613 18.7917 33.1639 18.7917C36.079 18.7917 38.4505 16.5731 38.4505 13.846C38.4505 13.5149 38.1636 13.2465 37.8097 13.2465C37.4558 13.2465 37.1689 13.5149 37.1689 13.846C37.1689 15.9119 35.3723 17.5927 33.1639 17.5927C30.9556 17.5927 29.1589 15.9119 29.1589 13.846C29.1589 13.5149 28.872 13.2465 28.5182 13.2465C28.1643 13.2465 27.8774 13.5149 27.8774 13.846C27.8774 15.9119 26.0807 17.5927 23.8724 17.5927C21.664 17.5927 19.8674 15.9119 19.8674 13.846C19.8674 13.5149 19.5805 13.2465 19.2266 13.2465C18.8727 13.2465 18.5858 13.5149 18.5858 13.846C18.5858 15.9119 16.7892 17.5927 14.5808 17.5927C12.4216 17.5927 10.5758 15.9693 10.5758 13.816C10.5758 13.4849 10.2889 13.2165 9.93505 13.2165C9.58117 13.2165 9.29425 13.4849 9.29425 13.816C9.29425 15.9511 7.46005 17.5927 5.28927 17.5927C3.08445 17.5927 1.28773 15.9115 1.28429 13.846V10.252L5.22944 1.73509H33.2239L36.8337 9.5283H4.80875C4.45479 9.5283 4.16796 9.79665 4.16796 10.1278V10.1278Z" fill="#007FFC"/>
</svg>
